# xmcd
#
# Track frame offsets: 
#        150
#        11284
#        22173
#        32277
#        47488
#        60608
#        71883
#        83510
#        97510
#        119933
#        138871
#        156970
#        172991
#        186922
#        202962
#        216721
#        236023
#        250879
#        273700
#        292981
#        312213
#        325332
#
# Disc length: 4472 seconds
#
# Revision: 0
# Processed by: cddbd v1.5.1PL0 Copyright (c) Steve Scherf et al.
# Submitted via: ExactAudioCopy v0.95a4
#
DISCID=39117616
DTITLE=Various Artist - my generation
DYEAR=2003
DGENRE=rock
TTITLE0=The Animals-don't let me be misunderstood
TTITLE1=The Zombies-she's not there
TTITLE2=The Kinks-you really got me
TTITLE3=The Who-my generation
TTITLE4=The Spencer Davis Group-gimme some lovin'
TTITLE5=The Yardbirds-for your love
TTITLE6=TheTroggs-wild thing
TTITLE7=The Animals-it's my life
TTITLE8=Cream-white room
TTITLE9=The Moody BLues-tuesday afternoon
TTITLE10=Procol Harum-a whiter shade of pale
TTITLE11=The KInks-sunny afternoon
TTITLE12=The small Faces-all or nothing
TTITLE13=The Move-blackberry way
TTITLE14=The Who-pinball wizard
TTITLE15=Traffic-feelin' alright
TTITLE16=Blind Faith-can't find my way home
TTITLE17=Deep Purple-lalena
TTITLE18=The Marmalade-reflections of my life
TTITLE19=The Hollies-he ain't haevy'he's my bother
TTITLE20=Rar Bird-sympathy
TTITLE21=The Beatles-ain't she sweet
EXTD=
EXTT0=
EXTT1=
EXTT2=
EXTT3=
EXTT4=
EXTT5=
EXTT6=
EXTT7=
EXTT8=
EXTT9=
EXTT10=
EXTT11=
EXTT12=
EXTT13=
EXTT14=
EXTT15=
EXTT16=
EXTT17=
EXTT18=
EXTT19=
EXTT20=
EXTT21=
PLAYORDER=
